HIERARCHY
ROOT Hips
{
  OFFSET 377.763 88.2609 174.383
  CHANNELS 6 Xposition Yposition Zposition Zrotation Xrotation Yrotation
  JOINT RightUpLeg
  {
    OFFSET -9.30536 -1.56319 -0.0308412
    CHANNELS 3 Zrotation Xrotation Yrotation
    JOINT RightLeg
    {
      OFFSET -0.0509473 -41.8867 0.0408735
      CHANNELS 3 Zrotation Xrotation Yrotation
      JOINT RightFoot
      {
        OFFSET -0.135761 -42.7852 -0.897951
        CHANNELS 3 Zrotation Xrotation Yrotation
        End Site
        {
          OFFSET 0 -7.69 17.5
        }
      }
    }
  }
  JOINT LeftUpLeg
  {
    OFFSET 9.25165 -1.62789 -0.00729124
    CHANNELS 3 Zrotation Xrotation Yrotation
    JOINT LeftLeg
    {
      OFFSET 0.024936 -41.8804 0.00207043
      CHANNELS 3 Zrotation Xrotation Yrotation
      JOINT LeftFoot
      {
        OFFSET 0.245063 -40.7505 0.529473
        CHANNELS 3 Zrotation Xrotation Yrotation
        End Site
        {
          OFFSET 0 -7.69 17.5
        }
      }
    }
  }
  JOINT Spine
  {
    OFFSET 0.0381636 14.2969 0.0214663
    CHANNELS 3 Zrotation Xrotation Yrotation
    JOINT Spine1
    {
      OFFSET 0.0273681 9.71499 0.0100001
      CHANNELS 3 Zrotation Xrotation Yrotation
      JOINT Spine2
      {
        OFFSET 0.029022 10.1215 -0.000399631
        CHANNELS 3 Zrotation Xrotation Yrotation
        JOINT Spine3
        {
          OFFSET 0.0290531 9.71322 0.0107928
          CHANNELS 3 Zrotation Xrotation Yrotation
          JOINT Neck
          {
            OFFSET 0.0830829 10.3832 0.0498053
            CHANNELS 3 Zrotation Xrotation Yrotation
            JOINT Head
            {
              OFFSET 0.0700972 9.47827 0.0499309
              CHANNELS 3 Zrotation Xrotation Yrotation
              End Site
              {
                OFFSET 0 15.95 0
              }
            }
          }
          JOINT RightShoulder
          {
            OFFSET -3.16088 6.93633 0.0290789
            CHANNELS 3 Zrotation Xrotation Yrotation
            JOINT RightArm
            {
              OFFSET -12.7509 0.028765 0.0682708
              CHANNELS 3 Zrotation Xrotation Yrotation
              JOINT RightForeArm
              {
                OFFSET -26.5067 -0.0728143 0.13822
                CHANNELS 3 Zrotation Xrotation Yrotation
                JOINT RightHand
                {
                  OFFSET -25.9897 -0.0664148 0.00141744
                  CHANNELS 3 Zrotation Xrotation Yrotation
                  JOINT RightHandThumb1
                  {
                    OFFSET -2.48905 0.190105 3.12053
                    CHANNELS 3 Zrotation Xrotation Yrotation
                    JOINT RightHandThumb2
                    {
                      OFFSET -3.68274 0 0
                      CHANNELS 3 Zrotation Xrotation Yrotation
                      JOINT RightHandThumb3
                      {
                        OFFSET -2.55832 0 0
                        CHANNELS 3 Zrotation Xrotation Yrotation
                        End Site
                        {
                          OFFSET -2.194 0 0
                        }
                      }
                    }
                  }
                  JOINT RightInHandIndex
                  {
                    OFFSET -3.22368 0.508421 1.97842
                    CHANNELS 3 Zrotation Xrotation Yrotation
                    JOINT RightHandIndex1
                    {
                      OFFSET -5.21684 -0.091368 0.999158
                      CHANNELS 3 Zrotation Xrotation Yrotation
                      JOINT RightHandIndex2
                      {
                        OFFSET -3.61937 0 0
                        CHANNELS 3 Zrotation Xrotation Yrotation
                        JOINT RightHandIndex3
                        {
                          OFFSET -2.0521 0 0
                          CHANNELS 3 Zrotation Xrotation Yrotation
                          End Site
                          {
                            OFFSET -1.805 0 0
                          }
                        }
                      }
                    }
                  }
                  JOINT RightInHandMiddle
                  {
                    OFFSET -3.38211 0.517263 0.756737
                    CHANNELS 3 Zrotation Xrotation Yrotation
                    JOINT RightHandMiddle1
                    {
                      OFFSET -5.17411 -0.084 0.313895
                      CHANNELS 3 Zrotation Xrotation Yrotation
                      JOINT RightHandMiddle2
                      {
                        OFFSET -3.94947 0 0
                        CHANNELS 3 Zrotation Xrotation Yrotation
                        JOINT RightHandMiddle3
                        {
                          OFFSET -2.47579 0 0
                          CHANNELS 3 Zrotation Xrotation Yrotation
                          End Site
                          {
                            OFFSET -1.975 0 0
                          }
                        }
                      }
                    }
                  }
                  JOINT RightInHandRing
                  {
                    OFFSET -3.36516 0.537895 -0.128947
                    CHANNELS 3 Zrotation Xrotation Yrotation
                    JOINT RightHandRing1
                    {
                      OFFSET -4.63474 -0.022105 -0.478947
                      CHANNELS 3 Zrotation Xrotation Yrotation
                      JOINT RightHandRing2
                      {
                        OFFSET -3.44238 0 0
                        CHANNELS 3 Zrotation Xrotation Yrotation
                        JOINT RightHandRing3
                        {
                          OFFSET -2.3881 0 0
                          CHANNELS 3 Zrotation Xrotation Yrotation
                          End Site
                          {
                            OFFSET -1.857 0 0
                          }
                        }
                      }
                    }
                  }
                  JOINT RightInHandPinky
                  {
                    OFFSET -3.16105 0.469368 -1.20179
                    CHANNELS 3 Zrotation Xrotation Yrotation
                    JOINT RightHandPinky1
                    {
                      OFFSET -4.14105 -0.022105 -1.09053
                      CHANNELS 3 Zrotation Xrotation Yrotation
                      JOINT RightHandPinky2
                      {
                        OFFSET -2.75653 0 0
                        CHANNELS 3 Zrotation Xrotation Yrotation
                        JOINT RightHandPinky3
                        {
                          OFFSET -1.74189 0 0
                          CHANNELS 3 Zrotation Xrotation Yrotation
                          End Site
                          {
                            OFFSET -1.645 0 0
                          }
                        }
                      }
                    }
                  }
                }
              }
            }
          }
          JOINT LeftShoulder
          {
            OFFSET 3.23403 6.91572 -0.0126821
            CHANNELS 3 Zrotation Xrotation Yrotation
            JOINT LeftArm
            {
              OFFSET 12.8488 -0.0444641 -0.0528339
              CHANNELS 3 Zrotation Xrotation Yrotation
              JOINT LeftForeArm
              {
                OFFSET 26.4942 -0.0237746 -0.09002
                CHANNELS 3 Zrotation Xrotation Yrotation
                JOINT LeftHand
                {
                  OFFSET 25.9989 -0.00653758 -0.026747
                  CHANNELS 3 Zrotation Xrotation Yrotation
                  JOINT LeftHandThumb1
                  {
                    OFFSET 2.48905 0.190105 3.12053
                    CHANNELS 3 Zrotation Xrotation Yrotation
                    JOINT LeftHandThumb2
                    {
                      OFFSET 3.68274 0 0
                      CHANNELS 3 Zrotation Xrotation Yrotation
                      JOINT LeftHandThumb3
                      {
                        OFFSET 2.55832 0 0
                        CHANNELS 3 Zrotation Xrotation Yrotation
                        End Site
                        {
                          OFFSET 2.194 0 0
                        }
                      }
                    }
                  }
                  JOINT LeftInHandIndex
                  {
                    OFFSET 3.22368 0.508421 1.97842
                    CHANNELS 3 Zrotation Xrotation Yrotation
                    JOINT LeftHandIndex1
                    {
                      OFFSET 5.21684 -0.091368 0.999158
                      CHANNELS 3 Zrotation Xrotation Yrotation
                      JOINT LeftHandIndex2
                      {
                        OFFSET 3.61937 0 0
                        CHANNELS 3 Zrotation Xrotation Yrotation
                        JOINT LeftHandIndex3
                        {
                          OFFSET 2.0521 0 0
                          CHANNELS 3 Zrotation Xrotation Yrotation
                          End Site
                          {
                            OFFSET 1.805 0 0
                          }
                        }
                      }
                    }
                  }
                  JOINT LeftInHandMiddle
                  {
                    OFFSET 3.38211 0.517263 0.756737
                    CHANNELS 3 Zrotation Xrotation Yrotation
                    JOINT LeftHandMiddle1
                    {
                      OFFSET 5.17411 -0.084 0.313895
                      CHANNELS 3 Zrotation Xrotation Yrotation
                      JOINT LeftHandMiddle2
                      {
                        OFFSET 3.94947 0 0
                        CHANNELS 3 Zrotation Xrotation Yrotation
                        JOINT LeftHandMiddle3
                        {
                          OFFSET 2.47579 0 0
                          CHANNELS 3 Zrotation Xrotation Yrotation
                          End Site
                          {
                            OFFSET 1.975 0 0
                          }
                        }
                      }
                    }
                  }
                  JOINT LeftInHandRing
                  {
                    OFFSET 3.36516 0.537895 -0.128947
                    CHANNELS 3 Zrotation Xrotation Yrotation
                    JOINT LeftHandRing1
                    {
                      OFFSET 4.63474 -0.022105 -0.478947
                      CHANNELS 3 Zrotation Xrotation Yrotation
                      JOINT LeftHandRing2
                      {
                        OFFSET 3.44238 0 0
                        CHANNELS 3 Zrotation Xrotation Yrotation
                        JOINT LeftHandRing3
                        {
                          OFFSET 2.3881 0 0
                          CHANNELS 3 Zrotation Xrotation Yrotation
                          End Site
                          {
                            OFFSET 1.857 0 0
                          }
                        }
                      }
                    }
                  }
                  JOINT LeftInHandPinky
                  {
                    OFFSET 3.16105 0.469368 -1.20179
                    CHANNELS 3 Zrotation Xrotation Yrotation
                    JOINT LeftHandPinky1
                    {
                      OFFSET 4.14105 -0.022105 -1.09053
                      CHANNELS 3 Zrotation Xrotation Yrotation
                      JOINT LeftHandPinky2
                      {
                        OFFSET 2.75653 0 0
                        CHANNELS 3 Zrotation Xrotation Yrotation
                        JOINT LeftHandPinky3
                        {
                          OFFSET 1.74189 0 0
                          CHANNELS 3 Zrotation Xrotation Yrotation
                          End Site
                          {
                            OFFSET 1.645 0 0
                          }
                        }
                      }
                    }
                  }
                }
              }
            }
          }
        }
      }
    }
  }
}
MOTION
Frames: 3
Frame Time: 0.00833333
1.500053599185274038e+02 2.089732591398502613e-03 1.571616456808640205e-02 2.583180935949290491e-02 -4.013012830455722074e-02 -1.136705936558273233e-01 8.965597672758285341e-02 -2.461315079870639994e-02 1.928629807915932803e-01 6.391259130668913019e-03 -3.386809259354300189e-02 -3.328212557418180201e-02 2.924928925217699580e-02 1.400739481284060152e-02 1.215728219839488228e-02 6.839249931498074531e-02 1.410441246869026215e-02 7.576374674133072584e-02 -7.570414851174973869e-02 2.059523042203717166e-02 7.666776802818854597e-02 3.417233883218462331e-02 -1.720002685095292638e-02 3.000138523693393275e-02 4.627992800059605415e-04 -2.748105472758553131e-02 -2.127423096147705583e-02 -8.080401778480480243e-04 -9.685238343735119021e-03 -5.345594256232321338e-03 -1.598342191263594147e-03 -1.274999666042521580e-02 -8.087399806718983605e-03 -7.078411269740161361e-03 6.155380175814520287e-04 4.434229352566826897e-03 -7.059452019703144413e-03 3.384086373271814299e-04 4.300070049698670113e-03 -1.074543512232840475e-01 3.964915387574522582e-02 7.613371889527341396e-02 -2.785421729375352901e-02 1.537057161444917164e-02 -1.270832703604025948e-02 1.898837741687879332e-01 -1.415107570323191274e-02 -3.324138466020321037e-02 3.245830317648209368e-02 2.548736421461000878e-01 1.629909876229887200e-01 -2.630241305920517636e-01 4.440632331301598845e-01 -6.236521139330831742e-01 0.000000000000000000e+00 0.000000000000000000e+00 0.000000000000000000e+00 -5.855383318576201810e-15 -4.023656212079451034e-16 0.000000000000000000e+00 -1.567309515429723212e-14 8.659161113532910679e-16 0.000000000000000000e+00 -1.238535501880837972e-14 6.846392802172085801e-15 3.777092880048258055e-15 0.000000000000000000e+00 0.000000000000000000e+00 0.000000000000000000e+00 0.000000000000000000e+00 -8.147148421017375917e-15 -1.928510168083987558e-14 0.000000000000000000e+00 2.158969683381488670e-15 -1.168703040655577021e-15 -1.238535501880837972e-14 6.846392802172085801e-15 3.777092880048258055e-15 0.000000000000000000e+00 1.095999400199981535e-15 -1.089476695500816539e-14 0.000000000000000000e+00 -1.623385730331009307e-15 -2.751018682320406153e-14 0.000000000000000000e+00 -7.334167174958026616e-15 -3.681820459221149677e-14 -1.238535501880837972e-14 6.846392802172085801e-15 3.777092880048258055e-15 0.000000000000000000e+00 0.000000000000000000e+00 0.000000000000000000e+00 0.000000000000000000e+00 -3.750055218792870955e-15 -2.395683282711809262e-14 0.000000000000000000e+00 -3.276542434548845464e-15 -3.217020923672884973e-14 -1.238535501880837972e-14 6.846392802172085801e-15 3.777092880048258055e-15 0.000000000000000000e+00 0.000000000000000000e+00 0.000000000000000000e+00 0.000000000000000000e+00 2.201020261829947434e-15 -1.327501315170729513e-14 0.000000000000000000e+00 -4.590343139375450722e-15 -4.237930531375594861e-14 8.452205723180598873e-02 -8.854724792555938861e-02 -3.315481911922396052e-01 -2.184853330486804801e-01 -1.249694367800459061e-01 3.026504498814626132e-01 -5.094655357292751097e-01 6.040680395464089747e-01 -4.961747840604447402e-01 -1.515555116207551734e-01 5.288813737080310107e-01 1.105439752146613469e-01 0.000000000000000000e+00 0.000000000000000000e+00 0.000000000000000000e+00 -4.605875550010449078e-15 -1.209301562068395683e-14 0.000000000000000000e+00 -1.145501371310615013e-14 3.263399359103900805e-15 0.000000000000000000e+00 7.637631639917836904e-15 3.699227130530191526e-15 -3.986642909623316452e-15 0.000000000000000000e+00 0.000000000000000000e+00 0.000000000000000000e+00 0.000000000000000000e+00 -5.516604560803618633e-15 -1.787477207701556838e-15 0.000000000000000000e+00 -3.024223784337073118e-16 5.287241038884574458e-15 7.637631639917836904e-15 3.699227130530191526e-15 -3.986642909623316452e-15 0.000000000000000000e+00 9.121367069849915941e-15 8.817002253395021351e-15 0.000000000000000000e+00 -1.084681771809730716e-15 2.871403741974247669e-15 0.000000000000000000e+00 1.098926545958495900e-15 -8.720104527730251351e-15 7.637631639917836904e-15 3.699227130530191526e-15 -3.986642909623316452e-15 0.000000000000000000e+00 0.000000000000000000e+00 0.000000000000000000e+00 0.000000000000000000e+00 1.000970393314357187e-15 -1.179066871400007126e-14 0.000000000000000000e+00 -4.360378682202528349e-15 -9.493101554399053741e-15 7.637631639917836904e-15 3.699227130530191526e-15 -3.986642909623316452e-15 0.000000000000000000e+00 0.000000000000000000e+00 0.000000000000000000e+00 0.000000000000000000e+00 2.352360067453457617e-16 1.090737805324768168e-15 0.000000000000000000e+00 2.933367446331786774e-15 -1.776909698506061657e-14
1.500028697252413963e+02 1.511234745243085530e-03 1.013785405357806382e-02 5.316319716234016446e-03 -3.709171445912472914e-02 -7.571848083671456342e-02 9.721048048958352839e-02 5.261914045007707978e-03 1.806408209000266718e-01 -5.547167338352979732e-03 -4.513065127227133128e-02 -5.922044549689879991e-03 2.934513283214495311e-02 1.355169629215417781e-02 -1.811935414869580291e-02 5.355783068873034430e-02 2.533462721383964930e-02 7.369594006934426789e-02 -8.065429646626921800e-02 3.589976707588082155e-02 7.685023837011899228e-02 3.653721134842823071e-02 -3.441741717224628544e-02 -1.206339655692825405e-02 3.299194107091290434e-02 -2.271179978453531298e-02 -8.625368004329500571e-02 6.308705155818177326e-03 -7.892999482145781134e-03 -2.122784413106557772e-02 1.032610604050970653e-02 -1.387368448571814003e-02 -3.330804114910951991e-02 -5.681167904602375633e-03 2.294950374080403943e-04 7.969883221471584650e-03 -5.690569942660201989e-03 -7.998268052463684006e-04 7.925229171808430978e-03 -1.079038639159614898e-01 4.520010109303375379e-02 1.403718933151937021e-01 -3.342567014113597551e-02 1.040106835101430732e-01 -3.956362008632995780e-02 1.577980728956614453e-01 -6.727243792480802620e-02 -4.075322484796535527e-02 5.937461252546574197e-01 -2.411234119336063547e-02 7.819455491661116975e-01 -3.281297087774943666e-01 5.831025946734935683e-01 -7.108501303540535332e-01 0.000000000000000000e+00 0.000000000000000000e+00 0.000000000000000000e+00 8.504484681149206691e-15 -1.213631134514974546e-15 0.000000000000000000e+00 2.700519394945646754e-15 1.290830308446563723e-15 0.000000000000000000e+00 -2.231769101022571578e-14 8.782722038779495395e-15 3.672312850839381322e-15 0.000000000000000000e+00 0.000000000000000000e+00 0.000000000000000000e+00 0.000000000000000000e+00 -1.249704318046289042e-14 -3.764835340975778249e-15 0.000000000000000000e+00 5.268405685605327622e-15 -7.223091912171757782e-15 -2.231769101022571578e-14 8.782722038779495395e-15 3.672312850839381322e-15 0.000000000000000000e+00 -2.389855619426339705e-15 -4.220245224434525537e-15 0.000000000000000000e+00 -4.092158641562186049e-15 -8.595565637835974044e-15 0.000000000000000000e+00 -2.724381243762951005e-15 -1.859795176879767706e-14 -2.231769101022571578e-14 8.782722038779495395e-15 3.672312850839381322e-15 0.000000000000000000e+00 0.000000000000000000e+00 0.000000000000000000e+00 0.000000000000000000e+00 -4.679210361012714876e-15 -2.631312215804173475e-14 0.000000000000000000e+00 -6.504305113762085812e-15 -1.837899857352801171e-14 -2.231769101022571578e-14 8.782722038779495395e-15 3.672312850839381322e-15 0.000000000000000000e+00 0.000000000000000000e+00 0.000000000000000000e+00 0.000000000000000000e+00 -4.212875273805454750e-15 -2.037358265528485643e-14 0.000000000000000000e+00 -1.639568493602955352e-15 -4.533841746223211989e-14 7.020520260483432973e-02 -6.578793673476975024e-02 -3.287826536250182397e-01 -1.490624709676960369e-01 -1.186335095604481166e-01 2.296377457750052031e-01 -5.950894122968977129e-01 9.748237889306528015e-01 -6.198533430694519453e-01 -6.445130945586137472e-03 5.729483371665745617e-01 1.891467735078974088e-01 0.000000000000000000e+00 0.000000000000000000e+00 0.000000000000000000e+00 7.691198037138675653e-15 -9.252138898698769106e-15 0.000000000000000000e+00 -6.488653544435620892e-15 5.211541746058047025e-15 0.000000000000000000e+00 1.910599940624792762e-15 1.072231909331509608e-14 2.748152648784374626e-15 0.000000000000000000e+00 0.000000000000000000e+00 0.000000000000000000e+00 0.000000000000000000e+00 -8.918601710900273206e-16 -9.410289518540368502e-15 0.000000000000000000e+00 9.646422809818679686e-16 -2.588490446392774771e-14 1.910599940624792762e-15 1.072231909331509608e-14 2.748152648784374626e-15 0.000000000000000000e+00 5.693880238248870092e-15 1.571936002403131578e-14 0.000000000000000000e+00 -1.673064497471843772e-15 -7.177925221774569761e-15 0.000000000000000000e+00 2.405138618814171786e-15 -9.275068522452150981e-15 1.910599940624792762e-15 1.072231909331509608e-14 2.748152648784374626e-15 0.000000000000000000e+00 0.000000000000000000e+00 0.000000000000000000e+00 0.000000000000000000e+00 -6.413026605843876677e-15 -1.343558015140382972e-14 0.000000000000000000e+00 -5.724978157745620648e-15 -3.327949618636227562e-15 1.910599940624792762e-15 1.072231909331509608e-14 2.748152648784374626e-15 0.000000000000000000e+00 0.000000000000000000e+00 0.000000000000000000e+00 0.000000000000000000e+00 8.575976862828388148e-15 2.831778558487970482e-15 0.000000000000000000e+00 2.253990367254466355e-15 -2.694874590805310852e-14
1.500033895349355362e+02 1.462069437187067233e-03 4.834882896104276268e-03 -1.675885569214477164e-02 -3.446907766705403081e-02 -5.230300821771619729e-02 1.108383474866832530e-01 2.922050159510432982e-02 1.739442409281666824e-01 -1.184580618514247639e-02 -4.363978123411822729e-02 9.395916049735133363e-03 2.199610550694175090e-02 7.471379330541845845e-03 -3.029878867687820290e-02 4.621742826750310784e-02 4.263151593208618084e-02 5.900085261721896984e-02 -7.853036535299061371e-02 4.202429391838442135e-02 7.390393186245197699e-02 2.827154267276963881e-02 -4.220787537960520724e-02 -2.562691147740812220e-02 4.499600128999750592e-02 -1.012818253410969864e-02 -1.052358092189220190e-01 9.420339639731876644e-03 -6.164865231688558371e-03 -2.591839815235096739e-02 1.539414723769674462e-02 -1.061314573368587165e-02 -4.074724131062673615e-02 -5.965044783676846582e-03 6.399520989699591554e-05 8.900600153242494914e-03 -5.983912403005900438e-03 -3.788032317078042954e-04 8.906335211937130639e-03 -9.718947024948858260e-02 4.001369812270794135e-02 1.577381493694766934e-01 -3.311375069853386005e-02 1.364578515716843576e-01 -4.482141883528170667e-02 1.292498824734557017e-01 -8.756118494738106273e-02 -4.179632478626736647e-02 9.151152991542649273e-01 -1.109535152305753392e-01 1.126837351599293546e+00 -3.570849967611778863e-01 5.331144929584991088e-01 -6.720443128750003270e-01 0.000000000000000000e+00 0.000000000000000000e+00 0.000000000000000000e+00 -1.352532238646923195e-15 -3.813511506947040889e-15 0.000000000000000000e+00 -1.251540808222688957e-14 -5.116269663127340126e-16 0.000000000000000000e+00 -7.654469425963947025e-15 1.330684446617490210e-15 3.193403055959455651e-15 0.000000000000000000e+00 0.000000000000000000e+00 0.000000000000000000e+00 0.000000000000000000e+00 -1.231959221796695307e-14 -2.854866633582648955e-14 0.000000000000000000e+00 -3.145271270518717161e-15 -2.619915445355118095e-14 -7.654469425963947025e-15 1.330684446617490210e-15 3.193403055959455651e-15 0.000000000000000000e+00 -1.322971405149724836e-15 -7.318659396120657180e-15 0.000000000000000000e+00 -7.673317662622111371e-16 -2.369417435048425550e-14 0.000000000000000000e+00 -7.717154669559975287e-15 -5.225519334466820155e-14 -7.654469425963947025e-15 1.330684446617490210e-15 3.193403055959455651e-15 0.000000000000000000e+00 0.000000000000000000e+00 0.000000000000000000e+00 0.000000000000000000e+00 -6.452036522465643582e-15 -2.352141222484978918e-14 0.000000000000000000e+00 -6.380948582465610732e-15 -3.128497174447266275e-14 -7.654469425963947025e-15 1.330684446617490210e-15 3.193403055959455651e-15 0.000000000000000000e+00 0.000000000000000000e+00 0.000000000000000000e+00 0.000000000000000000e+00 -3.280046144144605802e-15 -1.713013324588485182e-14 0.000000000000000000e+00 -1.063335225202496049e-14 -4.164279032458819401e-14 6.095085188339569721e-02 -6.799979970952246822e-02 -3.431976666527338238e-01 -1.258235103512094499e-01 -1.359148524660105661e-01 2.154498421486314153e-01 -6.573532210504166029e-01 1.201078280364092477e+00 -6.906761053065462175e-01 1.198353998879878590e-01 8.339372249456077357e-01 3.350668125868723202e-01 0.000000000000000000e+00 0.000000000000000000e+00 0.000000000000000000e+00 6.105572781337281565e-15 -6.578903164883094260e-16 0.000000000000000000e+00 4.859616566623480571e-16 -1.069857368799889018e-15 0.000000000000000000e+00 -2.075685908179336994e-15 3.586208384080944550e-15 2.725934363232607338e-15 0.000000000000000000e+00 0.000000000000000000e+00 0.000000000000000000e+00 0.000000000000000000e+00 -5.781826336111538334e-15 -6.081753525446364347e-15 0.000000000000000000e+00 -6.326887800938303255e-16 9.464477547894986169e-16 -2.075685908179336994e-15 3.586208384080944550e-15 2.725934363232607338e-15 0.000000000000000000e+00 -3.405703159709058558e-15 -5.902315661129810556e-15 0.000000000000000000e+00 1.280210452341539506e-16 2.183243269194397648e-15 0.000000000000000000e+00 -2.053050306187371786e-15 3.998721382851456239e-15 -2.075685908179336994e-15 3.586208384080944550e-15 2.725934363232607338e-15 0.000000000000000000e+00 0.000000000000000000e+00 0.000000000000000000e+00 0.000000000000000000e+00 -3.810704497218320406e-15 -8.943680583029761618e-15 0.000000000000000000e+00 -1.293235895645113918e-15 -1.011378845929017121e-15 -2.075685908179336994e-15 3.586208384080944550e-15 2.725934363232607338e-15 0.000000000000000000e+00 0.000000000000000000e+00 0.000000000000000000e+00 0.000000000000000000e+00 2.963184763144521538e-15 5.251655373256887850e-15 0.000000000000000000e+00 1.293520126372615747e-15 -4.179863449278151461e-15
